<?xml version="1.0" standalone="no"?>
<!DOCTYPE svg PUBLIC "-//W3C//DTD SVG 20010904//EN"
 "http://www.w3.org/TR/2001/REC-SVG-20010904/DTD/svg10.dtd">
<svg version="1.0" xmlns="http://www.w3.org/2000/svg"
 width="300.000000pt" height="300.000000pt" viewBox="0 0 300.000000 300.000000"
 preserveAspectRatio="xMidYMid meet">
<metadata>
Created by potrace 1.10, written by Peter Selinger 2001-2011
</metadata>
<g transform="translate(0.000000,300.000000) scale(0.100000,-0.100000)"
fill="#000000" stroke="none">
<path d="M1333 2543 c-18 -2 -33 -9 -33 -14 0 -5 12 -6 28 -2 15 3 35 6 45 5
9 0 17 3 17 9 0 5 -6 8 -12 7 -7 0 -28 -3 -45 -5z"/>
<path d="M1458 2543 c29 -2 74 -2 100 0 26 2 2 3 -53 3 -55 0 -76 -1 -47 -3z"/>
<path d="M1780 2512 c0 -4 25 -16 55 -27 36 -12 55 -24 55 -34 0 -11 3 -12 8
-4 4 7 17 10 31 6 17 -4 20 -8 9 -15 -10 -8 -9 -9 3 -5 18 6 108 -35 124 -57
6 -7 15 -14 20 -16 33 -9 37 -13 23 -22 -10 -8 -10 -9 2 -5 21 6 72 -33 160
-122 89 -89 124 -136 114 -153 -5 -8 -2 -9 9 -5 11 4 17 1 17 -8 0 -8 4 -15 8
-15 8 0 36 -60 33 -72 0 -5 3 -8 8 -8 9 0 69 -130 77 -167 1 -6 7 -19 13 -30
11 -16 11 -15 6 7 -10 40 -67 172 -92 212 -13 21 -23 41 -23 45 0 5 -27 44
-60 87 -117 155 -262 274 -415 341 -126 55 -185 77 -185 67z"/>
<path d="M1170 2498 c-14 -6 -34 -14 -45 -18 -57 -23 -176 -80 -187 -90 -7 -6
-32 -23 -55 -38 -91 -59 -313 -304 -313 -345 0 -6 23 23 52 64 62 89 202 231
278 281 89 58 211 117 259 125 29 5 73 33 51 32 -8 0 -26 -5 -40 -11z"/>
<path d="M1300 2429 c-19 -5 -44 -11 -54 -14 -45 -11 -86 -27 -86 -34 0 -4 26
1 58 12 31 10 67 21 79 23 30 6 71 23 53 22 -8 0 -31 -4 -50 -9z"/>
<path d="M1710 2421 c0 -6 7 -11 15 -11 56 0 259 -95 351 -163 78 -59 233
-219 234 -240 0 -5 8 -21 19 -35 56 -80 131 -276 131 -344 0 -14 4 -18 9 -13
6 6 4 31 -5 65 -9 30 -17 66 -20 80 -6 29 -83 193 -94 200 -4 3 -17 24 -29 48
-25 49 -221 248 -272 276 -19 10 -57 32 -86 48 -48 26 -168 76 -203 83 -8 2
-23 6 -32 10 -11 4 -18 3 -18 -4z"/>
<path d="M1069 2343 c-87 -43 -173 -106 -249 -181 -63 -64 -137 -157 -146
-184 -3 -10 -10 -16 -15 -13 -8 5 -11 -8 -8 -31 0 -4 -3 -10 -8 -13 -18 -12
-82 -168 -88 -216 -2 -11 -6 -33 -10 -50 -5 -17 -4 -27 1 -22 5 5 9 12 10 15
4 49 34 144 65 209 108 225 256 378 467 483 34 17 62 33 62 35 0 8 -5 6 -81
-32z"/>
<path d="M1462 2227 c-22 -28 -91 -120 -154 -202 -138 -181 -145 -193 -122
-202 12 -4 27 7 53 38 20 24 72 84 116 134 44 50 94 109 112 130 l32 40 1
-192 0 -192 -56 -60 c-57 -62 -58 -67 -23 -106 17 -19 16 -22 -42 -85 l-58
-65 282 -3 282 -2 89 92 c49 51 109 114 134 139 l44 47 -94 126 c-51 69 -95
126 -98 125 -3 0 -34 -37 -70 -81 -55 -69 -66 -78 -75 -64 -5 10 -37 55 -70
101 -33 46 -98 138 -145 205 -46 67 -87 123 -91 126 -4 2 -25 -20 -47 -49z
m116 -62 c15 -22 29 -42 32 -45 3 -3 32 -45 65 -95 33 -49 81 -118 106 -151
l47 -62 63 79 c35 43 66 78 69 78 3 0 18 -17 33 -37 15 -20 48 -64 72 -96 24
-32 42 -63 39 -67 -3 -5 2 -9 10 -9 32 0 14 -32 -55 -103 -39 -39 -94 -98
-122 -129 l-50 -58 -268 0 c-155 0 -269 4 -269 9 0 5 14 21 30 34 17 14 30 29
30 34 1 4 11 17 24 27 l23 19 -29 30 -28 30 22 26 c12 14 38 43 57 63 l34 37
-2 188 c-1 103 -5 191 -7 194 -2 4 2 9 8 12 7 2 10 8 6 12 -8 8 -47 -34 -198
-214 -19 -22 -40 -41 -47 -41 -6 0 -15 -5 -19 -12 -5 -7 -3 -8 5 -3 10 6 11 3
1 -14 -6 -12 -18 -25 -25 -27 -8 -3 -17 -14 -20 -25 -6 -18 -25 -18 -25 -1 0
10 37 58 73 95 15 16 27 33 27 38 0 5 4 9 8 9 5 0 13 10 19 23 6 12 27 42 47
67 19 25 44 55 53 68 10 13 23 29 28 35 6 7 21 27 35 46 l23 34 24 -29 c13
-16 36 -47 51 -69z"/>
<path d="M1019 2121 c-30 -30 -37 -51 -18 -51 5 0 8 4 4 9 -7 12 24 43 35 36
4 -3 10 2 14 10 3 8 14 15 24 15 25 0 72 -23 72 -35 0 -5 7 -19 15 -29 14 -18
15 -18 15 -2 0 32 -55 76 -95 76 -27 0 -44 -8 -66 -29z"/>
<path d="M1170 2042 c0 -7 -7 -12 -15 -12 -8 0 -14 -3 -14 -7 3 -21 -3 -32
-21 -38 -11 -3 -20 -10 -20 -15 0 -6 10 -5 23 1 25 11 63 66 53 76 -3 4 -6 1
-6 -5z"/>
<path d="M539 1958 c-7 -18 -14 -37 -17 -43 -2 -5 6 1 17 15 22 28 34 60 21
60 -4 0 -14 -15 -21 -32z"/>
<path d="M492 1853 c-11 -27 -23 -61 -26 -78 -6 -29 -6 -29 5 -5 33 70 54 130
46 130 -3 0 -14 -21 -25 -47z"/>
<path d="M1304 1823 c-27 -32 -51 -60 -54 -63 -22 -22 -41 -50 -33 -50 5 0 31
27 57 60 28 36 51 58 58 54 6 -4 9 -3 5 2 -3 5 1 18 9 29 14 18 16 19 25 3 5
-9 17 -24 25 -33 15 -14 12 -20 -27 -63 -24 -26 -60 -66 -79 -89 -24 -30 -37
-38 -43 -30 -6 9 -7 8 -5 -2 4 -15 -31 -58 -44 -54 -5 2 -8 -4 -8 -12 0 -8 -4
-15 -10 -15 -5 0 -10 -6 -10 -13 0 -14 -46 -62 -58 -62 -4 0 -6 -3 -4 -7 1 -5
-21 -8 -49 -8 l-51 0 28 30 c20 21 31 26 37 17 5 -8 7 -4 5 9 -2 15 14 40 47
76 68 73 87 98 75 98 -5 0 -13 -6 -17 -14 -4 -8 -34 -43 -66 -79 -107 -121
-117 -132 -117 -139 0 -5 24 -8 54 -8 l53 0 99 107 c240 261 222 234 189 278
-15 19 -31 35 -35 35 -4 0 -29 -26 -56 -57z"/>
<path d="M880 1768 c-36 -45 -92 -116 -125 -157 -69 -88 -105 -137 -105 -145
0 -3 53 -6 118 -6 l119 0 78 88 c43 48 89 99 102 113 l24 26 -62 84 c-34 46
-64 78 -67 71 -2 -7 5 -20 16 -30 31 -27 92 -108 92 -121 0 -11 -94 -119 -167
-193 -27 -27 -31 -28 -138 -28 -60 0 -105 4 -100 8 6 4 22 23 35 42 13 19 44
60 70 90 25 30 66 82 90 115 25 33 55 71 68 85 19 21 28 40 19 40 -1 0 -31
-37 -67 -82z"/>
<path d="M2097 1576 c-53 -58 -97 -107 -97 -110 0 -3 81 -6 180 -6 99 0 180 3
180 8 0 6 -158 212 -163 212 -1 0 -46 -47 -100 -104z m146 31 c10 -10 15 -23
11 -30 -4 -7 -4 -9 1 -5 12 11 35 -11 35 -34 0 -10 4 -17 9 -14 8 5 41 -34 41
-49 0 -3 -74 -5 -164 -5 l-164 0 32 33 c17 17 50 53 74 80 23 26 48 47 54 47
6 0 9 3 5 6 -3 3 0 12 6 20 10 11 15 9 27 -9 8 -12 23 -30 33 -40z"/>
<path d="M2476 1524 c-10 -25 -7 -112 4 -119 6 -4 10 20 10 64 0 72 -3 84 -14
55z"/>
<path d="M2580 1471 c0 -39 4 -71 8 -71 11 0 12 129 1 136 -5 3 -9 -27 -9 -65z"/>
<path d="M762 1392 c-9 -7 -12 -59 -10 -228 l3 -219 65 -1 c64 -1 64 -1 8 3
l-58 4 0 219 0 219 58 4 57 3 -55 2 c-30 1 -61 -2 -68 -6z"/>
<path d="M899 1323 c2 -51 0 -78 -9 -83 -8 -5 -7 -9 4 -13 11 -5 41 19 99 78
l82 84 60 4 60 3 -63 2 -64 2 -79 -81 -79 -82 0 76 c0 42 -3 78 -8 81 -4 2 -6
-30 -3 -71z"/>
<path d="M1393 1393 c42 -2 112 -2 155 0 42 1 7 3 -78 3 -85 0 -120 -2 -77 -3z"/>
<path d="M1857 1393 c-4 -3 -7 -80 -7 -169 l0 -163 -35 -17 c-28 -13 -38 -14
-50 -4 -11 9 -15 9 -15 1 0 -21 31 -24 71 -6 l39 18 0 163 c0 184 -7 169 85
177 29 3 23 4 -21 5 -33 1 -64 -1 -67 -5z"/>
<path d="M2197 1393 c18 -2 50 -2 70 0 21 2 7 4 -32 4 -38 0 -55 -2 -38 -4z"/>
<path d="M2228 1298 c-54 -55 -98 -105 -98 -111 0 -18 156 -170 170 -165 6 2
-4 15 -23 28 -19 14 -58 51 -87 83 l-53 58 98 99 c55 55 97 101 94 103 -2 2
-48 -41 -101 -95z"/>
<path d="M1304 1225 c0 -93 2 -133 3 -88 2 45 2 122 0 170 -1 48 -3 12 -3 -82z"/>
<path d="M1693 1376 c9 -7 17 -22 17 -32 0 -15 2 -16 9 -5 12 18 27 7 51 -37
11 -22 19 -30 20 -20 0 24 -64 94 -93 101 -20 6 -20 5 -4 -7z"/>
<path d="M1991 1308 c0 -49 3 -88 7 -88 4 0 6 33 4 73 -5 107 -10 114 -11 15z"/>
<path d="M2105 1348 c-84 -92 -97 -108 -89 -108 5 0 20 16 34 34 15 21 30 32
40 28 8 -3 12 -1 7 3 -4 5 9 26 30 47 20 21 32 38 27 38 -6 0 -28 -19 -49 -42z"/>
<path d="M1105 1263 l-69 -74 84 -84 c77 -77 110 -100 110 -76 0 5 14 14 30
21 17 7 28 15 26 18 -3 2 -22 -5 -42 -17 l-36 -21 -74 73 c-41 41 -74 78 -74
84 0 6 33 42 73 81 39 40 65 71 57 71 -8 -1 -46 -35 -85 -76z"/>
<path d="M1432 1238 l2 -63 3 58 4 58 107 -3 c102 -3 107 -4 119 -28 8 -16 13
-19 13 -9 0 38 -32 49 -143 49 l-107 0 2 -62z"/>
<path d="M2440 1208 c-29 -107 -50 -151 -77 -163 -13 -5 -23 -13 -23 -17 0
-28 62 28 77 68 6 16 15 38 19 49 4 11 8 27 10 35 1 8 7 35 13 59 7 23 10 45
8 47 -3 3 -15 -32 -27 -78z"/>
<path d="M555 1240 c5 -60 90 -263 127 -304 10 -11 20 -28 24 -38 5 -17 20
-18 188 -18 189 0 239 8 256 40 13 25 13 26 -10 27 -24 2 -117 80 -155 129
-29 38 -41 41 -70 16 -16 -14 -20 -29 -20 -84 0 -36 3 -64 8 -61 4 2 7 30 7
61 1 34 7 65 15 77 15 18 19 16 98 -63 45 -45 91 -82 101 -82 10 0 16 -6 14
-12 -10 -31 -54 -38 -233 -38 l-180 0 -21 33 c-55 85 -110 207 -142 317 l-10
35 3 -35z"/>
<path d="M2557 1227 c-5 -21 -10 -46 -13 -55 -3 -9 2 -4 11 11 9 15 15 40 13
55 -3 24 -4 23 -11 -11z"/>
<path d="M1766 1186 c-9 -20 -33 -48 -52 -62 -29 -22 -33 -29 -20 -36 9 -5 13
-16 10 -26 -5 -13 -4 -14 4 -3 8 11 10 11 14 0 3 -8 9 -11 13 -6 5 4 -2 17
-14 28 l-23 21 32 19 c17 11 38 36 46 55 20 47 11 55 -10 10z"/>
<path d="M2525 1123 c-9 -38 -34 -92 -59 -128 -12 -16 -20 -31 -18 -33 5 -5
-29 -62 -38 -62 -6 0 -9 -4 -7 -8 4 -14 -46 -80 -70 -93 -12 -7 -20 -15 -18
-19 9 -14 -127 -140 -151 -140 -8 0 -13 -4 -10 -9 3 -4 -10 -17 -29 -27 -19
-10 -35 -22 -35 -26 0 -5 -4 -8 -10 -8 -5 0 -49 -19 -97 -43 -48 -23 -122 -53
-163 -66 -41 -12 -79 -24 -85 -26 -5 -2 0 -4 11 -4 34 -1 162 44 259 92 203
100 375 269 473 464 41 80 72 163 62 163 -4 0 -11 -12 -15 -27z"/>
<path d="M479 1114 c13 -47 86 -188 132 -256 53 -77 171 -195 249 -248 71 -48
211 -123 217 -116 3 3 -12 13 -34 24 -73 37 -136 73 -181 104 -61 42 -199 181
-241 243 -37 55 -121 214 -121 231 0 5 -7 19 -15 30 -13 18 -14 17 -6 -12z"/>
<path d="M2006 1094 c-9 -9 -16 -32 -16 -54 0 -21 -5 -40 -12 -42 -7 -3 -6 -7
5 -11 15 -5 17 1 17 42 0 32 5 53 16 61 13 12 27 2 97 -68 80 -79 84 -82 127
-81 l45 2 -48 6 c-43 6 -54 14 -120 84 -39 43 -77 77 -84 77 -6 0 -19 -7 -27
-16z"/>
<path d="M1430 1079 c0 -9 11 -20 24 -23 14 -3 32 -14 41 -23 16 -16 16 -17
-1 -30 -10 -7 -13 -13 -8 -13 6 0 16 6 23 13 17 16 43 -19 35 -47 -4 -17 -3
-18 5 -6 10 13 11 13 12 0 1 -8 1 -18 0 -22 0 -5 3 -8 8 -8 4 0 19 -10 33 -22
25 -23 63 -48 73 -48 16 0 1 19 -20 24 -14 4 -42 30 -64 59 -73 96 -90 114
-123 130 l-33 17 66 0 66 0 62 -70 c57 -63 101 -90 101 -59 0 5 -5 7 -11 3 -6
-3 -42 26 -82 67 l-71 74 -68 0 c-56 0 -68 -3 -68 -16z"/>
<path d="M1305 998 c-36 -19 -67 -52 -86 -93 -17 -35 -17 -37 -2 -17 53 69 77
92 109 102 67 23 122 -6 178 -95 19 -29 49 -64 68 -78 40 -31 117 -52 161 -43
40 7 176 68 177 79 0 4 -12 1 -27 -6 -28 -14 -71 -33 -126 -56 -87 -35 -177
13 -267 143 -14 20 -36 44 -50 53 -29 20 -107 26 -135 11z"/>
<path d="M1832 972 c-35 -14 -59 -28 -53 -30 7 -2 27 4 47 13 19 9 49 22 67
30 17 8 25 14 17 14 -8 0 -44 -12 -78 -27z"/>
<path d="M2290 949 c0 -5 5 -7 10 -4 16 10 24 -23 10 -40 -19 -23 -159 -20
-213 4 -23 10 -53 21 -67 25 -25 6 -25 6 -2 -5 12 -7 22 -16 22 -21 0 -5 4 -6
10 -3 5 3 23 -1 39 -10 37 -19 201 -21 219 -3 17 17 15 55 -4 62 -21 8 -24 8
-24 -5z"/>
<path d="M1299 911 c-16 -16 -29 -35 -29 -42 0 -11 30 16 59 54 21 27 2 20
-30 -12z"/>
<path d="M1402 915 c6 -14 17 -24 24 -21 7 3 16 -4 19 -15 4 -11 9 -18 12 -15
8 8 -24 54 -47 66 -19 10 -19 9 -8 -15z"/>
<path d="M1824 905 c-38 -19 -75 -35 -82 -35 -7 0 -10 -4 -7 -10 4 -6 24 0 52
14 25 14 52 22 61 19 9 -4 13 -2 9 4 -4 6 9 18 31 26 20 9 30 16 21 16 -9 1
-48 -15 -85 -34z"/>
<path d="M1157 837 c-26 -20 -42 -22 -198 -26 l-169 -3 22 -31 c13 -18 22 -39
21 -47 -1 -8 0 -10 2 -5 3 6 62 10 147 9 l143 0 -131 3 c-129 3 -131 4 -158
32 l-28 29 159 3 c145 4 161 6 196 27 20 13 37 26 37 28 0 9 -16 2 -43 -19z"/>
<path d="M1968 850 c29 -4 76 -18 103 -30 28 -11 55 -20 61 -18 22 8 -119 54
-167 55 l-50 1 53 -8z"/>
<path d="M1340 820 c0 -6 25 -10 58 -9 43 1 51 3 32 9 -36 12 -90 12 -90 0z"/>
<path d="M1234 785 c-38 -19 -75 -35 -82 -35 -7 0 -10 -4 -7 -10 4 -6 31 3 68
23 33 17 75 37 91 44 17 6 24 12 15 12 -9 1 -48 -15 -85 -34z"/>
<path d="M1475 798 c11 -6 38 -23 60 -37 22 -14 45 -26 50 -27 6 -1 19 -6 29
-10 14 -5 17 -4 12 4 -4 7 -13 12 -20 12 -6 0 -36 16 -66 35 -30 19 -62 34
-70 34 -10 0 -9 -3 5 -11z"/>
<path d="M1790 775 c-36 -19 -71 -35 -77 -35 -7 0 -13 -4 -13 -10 0 -14 13
-13 28 2 7 7 12 9 12 4 0 -4 13 2 29 13 28 20 73 42 99 47 23 4 27 14 6 14
-10 -1 -48 -16 -84 -35z"/>
<path d="M2023 795 c0 -8 6 -15 14 -15 7 0 30 -11 51 -24 54 -35 86 -40 106
-17 20 22 18 52 -2 59 -11 3 -11 1 0 -17 11 -17 10 -23 -4 -37 -14 -15 -19
-14 -59 4 -24 11 -58 30 -75 41 -25 17 -31 18 -31 6z"/>
<path d="M1330 741 c-37 -12 -131 -63 -126 -68 2 -2 32 10 66 27 92 46 138 44
232 -11 28 -17 60 -31 70 -32 10 -1 18 -5 18 -9 0 -4 15 -7 33 -7 27 1 28 2 7
6 -14 2 -31 12 -37 21 -8 9 -13 11 -13 4 0 -12 -55 11 -109 47 -13 8 -29 16
-35 18 -46 9 -85 11 -106 4z"/>
<path d="M1910 729 c0 -5 19 -9 43 -9 24 0 54 -8 71 -19 l29 -19 -39 -24 c-61
-37 -165 -85 -204 -93 -42 -9 -74 -24 -50 -24 42 -1 215 74 284 122 25 18 27
22 13 32 -9 7 -13 16 -9 20 4 5 1 5 -5 1 -7 -4 -23 -1 -35 5 -27 15 -98 21
-98 8z"/>
<path d="M1820 698 c-36 -17 -83 -37 -105 -44 -40 -14 -40 -14 -5 -9 33 5 206
83 185 84 -5 0 -39 -14 -75 -31z"/>
<path d="M1165 669 c-11 -4 -53 -8 -92 -8 -40 -1 -73 -4 -73 -8 0 -5 15 -16
33 -27 47 -27 167 -76 167 -68 0 4 -28 18 -62 31 -35 14 -76 32 -91 41 l-28
17 81 5 c44 3 83 8 87 11 11 12 -1 15 -22 6z"/>
<path d="M1210 557 c0 -4 18 -11 41 -17 22 -6 47 -14 55 -17 8 -3 14 -1 14 5
0 5 -15 12 -32 15 -18 4 -43 9 -55 13 -13 3 -23 4 -23 1z"/>
<path d="M1675 531 c-11 -5 -26 -6 -32 -4 -7 3 -13 0 -13 -7 0 -8 9 -10 28 -5
15 4 37 8 50 10 12 1 26 5 29 9 9 9 -38 6 -62 -3z"/>
<path d="M1090 490 c0 -13 145 -61 179 -59 9 0 -4 7 -29 14 -25 7 -69 22 -97
33 -29 11 -53 17 -53 12z"/>
<path d="M1405 410 c5 -9 192 -7 200 2 3 3 -41 5 -99 5 -58 0 -103 -4 -101 -7z"/>
</g>
</svg>
